<?xml version="1.0"?><svg fill="#000000" xmlns="http://www.w3.org/2000/svg"  viewBox="0 0 50 50" width="50px" height="50px">    <path d="M 25 2 C 24.174 2 23.347969 2.042 22.542969 2.125 C 21.821969 2.209 21.111391 2.3249375 20.400391 2.4609375 C 11.409391 4.2909375 4.3107031 11.388141 2.4707031 20.369141 C 2.3247031 21.069141 2.2187656 21.779234 2.1347656 22.490234 C 2.0417656 23.316234 2 24.153 2 25 C 2 37.681 12.319 48 25 48 C 25.836 48 26.662516 47.957281 27.478516 47.863281 C 28.189516 47.790281 28.899609 47.676297 29.599609 47.529297 C 38.600609 45.699297 45.699063 38.601609 47.539062 29.599609 C 47.675063 28.888609 47.791 28.176078 47.875 27.455078 C 47.958 26.651078 48 25.826 48 25 C 48 12.319 37.681 2 25 2 z M 25 4.0917969 C 36.531 4.0917969 45.908203 13.469 45.908203 25 C 45.908203 25.795 45.867437 26.578563 45.773438 27.351562 C 41.915438 26.462563 37.885281 24.864687 34.738281 22.679688 C 34.906281 23.421687 35 24.205 35 25 C 35 30.76 30.76 35 25 35 C 24.205 35 23.421688 34.905281 22.679688 34.738281 C 24.874688 37.885281 26.474281 41.915437 27.363281 45.773438 C 26.589281 45.867438 25.795 45.910156 25 45.910156 C 13.469 45.909156 4.0917969 36.531 4.0917969 25 C 4.0917969 24.205 4.1325625 23.410719 4.2265625 22.636719 C 8.0845625 23.525719 12.114719 25.124313 15.261719 27.320312 C 15.093719 26.578312 15 25.795 15 25 C 15 19.24 19.24 15 25 15 C 25.795 15 26.578312 15.094719 27.320312 15.261719 C 25.125312 12.104719 23.525719 8.0745625 22.636719 4.2265625 C 23.410719 4.1335625 24.205 4.0917969 25 4.0917969 z M 25 17 A 8 8 0 0 0 17 25 A 8 8 0 0 0 25 33 A 8 8 0 0 0 33 25 A 8 8 0 0 0 25 17 z"/></svg>